<?xml version="1.0" encoding="utf-8"?>
<!-- Generator: Adobe Illustrator 26.0.3, SVG Export Plug-In . SVG Version: 6.00 Build 0)  -->
<svg version="1.1" id="Camada_1" xmlns="http://www.w3.org/2000/svg" xmlns:xlink="http://www.w3.org/1999/xlink" x="0px" y="0px"
	 viewBox="0 0 320 320" style="enable-background:new 0 0 320 320;" xml:space="preserve">
<style type="text/css">
	.st0{fill:#FFFFFF;}
</style>
<path class="st0" d="M276,300.5h-2.8V112.1l9.7,4c1.2,0.5,2.4,0.7,3.5,0.7c3.7,0,7.2-2.2,8.7-5.8c2-4.8-0.3-10.2-5.1-12.2l-16.8-6.9
	V79.7l9.7,4c1.2,0.5,2.4,0.7,3.5,0.7c3.7,0,7.2-2.2,8.7-5.8c2-4.8-0.3-10.2-5.1-12.2L130.2,0.7C125.4-1.3,120,1,118,5.8
	c-2,4.8,0.3,10.2,5.1,12.2l9.9,4.1v12.2l-2.8-1.2c-4.8-2-10.2,0.3-12.2,5.1c-2,4.8,0.3,10.2,5.1,12.2l9.9,4.1v18.6l-79.4,41.1
	c-10.5,5.4-17.1,16.2-17.1,28.1v158.1h-2.9c-5.2,0-9.4,4.2-9.4,9.3c0,5.2,4.2,9.4,9.4,9.4H276c5.2,0,9.4-4.2,9.4-9.4
	C285.3,304.6,281.2,300.5,276,300.5z M151.7,29.8L254.5,72v12.2L151.7,42V29.8z M103.5,300.5v-29.7c0-5.2-4.2-9.4-9.4-9.4
	c-5.2,0-9.4,4.2-9.4,9.4v29.7H55.2v-57.9h38.9c5.2,0,9.4-4.2,9.4-9.4c0-5.2-4.2-9.3-9.4-9.3H55.2v-15.6h38.9c5.2,0,9.4-4.2,9.4-9.4
	c0-5.2-4.2-9.4-9.4-9.4H55.2v-16.1h38.9c5.2,0,9.4-4.2,9.4-9.4c0-5.2-4.2-9.3-9.4-9.3H55.2v-12.4c0-4.9,2.7-9.2,7-11.5L133,94.2
	v206.2H103.5z M231.2,300.5v-29.7c0-5.2-4.2-9.4-9.4-9.4c-5.2,0-9.4,4.2-9.4,9.4v29.7h-18.7v-29.7c0-5.2-4.2-9.4-9.4-9.4
	c-5.2,0-9.3,4.2-9.3,9.4v29.7h-23.3V62.2l102.8,42.2v196H231.2z"/>
<path class="st0" d="M184.3,192.4c5.2,0,9.3-4.2,9.3-9.4v-19c0-5.2-4.2-9.3-9.3-9.3c-5.2,0-9.4,4.2-9.4,9.3v19
	C174.9,188.2,179.1,192.4,184.3,192.4z"/>
<path class="st0" d="M221.8,192.4c5.2,0,9.4-4.2,9.4-9.4v-19c0-5.2-4.2-9.3-9.4-9.3c-5.2,0-9.4,4.2-9.4,9.3v19
	C212.5,188.2,216.7,192.4,221.8,192.4z"/>
<path class="st0" d="M184.4,204.9c-5.2,0-9.4,4.2-9.4,9.4v19c0,5.2,4.2,9.4,9.4,9.4c5.2,0,9.3-4.2,9.3-9.4v-19
	C193.7,209.1,189.6,204.9,184.4,204.9z"/>
<path class="st0" d="M222,204.9c-5.2,0-9.3,4.2-9.3,9.4v19c0,5.2,4.2,9.4,9.3,9.4c5.2,0,9.4-4.2,9.4-9.4v-19
	C231.3,209.1,227.1,204.9,222,204.9z"/>
<path class="st0" d="M184.3,142.4c5.2,0,9.4-4.2,9.4-9.3v-19c0-5.2-4.2-9.3-9.4-9.3c-5.2,0-9.4,4.2-9.4,9.3v19
	C175,138.2,179.2,142.4,184.3,142.4z"/>
<path class="st0" d="M221.9,142.4c5.2,0,9.3-4.2,9.3-9.3v-19c0-5.2-4.2-9.3-9.3-9.3c-5.2,0-9.4,4.2-9.4,9.3v19
	C212.5,138.2,216.7,142.4,221.9,142.4z"/>
</svg>
